<?xml version="1.0" standalone="no"?>
<!DOCTYPE svg PUBLIC "-//W3C//DTD SVG 20010904//EN"
 "http://www.w3.org/TR/2001/REC-SVG-20010904/DTD/svg10.dtd">
<svg version="1.0" xmlns="http://www.w3.org/2000/svg"
 width="1691.000000pt" height="1954.000000pt" viewBox="0 0 1691.000000 1954.000000"
 preserveAspectRatio="xMidYMid meet">

<g transform="translate(0.000000,1954.000000) scale(0.100000,-0.100000)"
fill="#fff" stroke="none">
<path d="M9565 19530 c-209 -42 -365 -198 -427 -428 -27 -100 -29 -301 -4
-415 35 -162 91 -294 182 -435 35 -54 50 -84 41 -87 -6 -2 -82 -18 -167 -35
-626 -128 -1421 -343 -2168 -588 l-244 -80 7 36 c67 357 -39 724 -272 941
-127 119 -319 201 -471 201 -189 0 -336 -103 -553 -389 -75 -99 -84 -107 -140
-128 -330 -124 -530 -349 -529 -598 1 -223 126 -428 364 -594 l59 -41 -39 -16
c-955 -392 -1784 -784 -2536 -1201 -103 -56 -189 -103 -192 -103 -2 0 -7 19
-11 43 -28 175 -113 374 -210 489 -94 113 -258 224 -405 274 -40 14 -82 19
-155 18 -87 0 -110 -4 -175 -30 -132 -52 -255 -143 -450 -330 -81 -79 -88 -83
-150 -94 -213 -39 -424 -142 -548 -270 -209 -213 -217 -553 -22 -841 85 -125
233 -263 377 -352 l71 -43 -71 -59 c-112 -96 -327 -312 -412 -415 -247 -299
-349 -559 -304 -769 17 -81 1125 -2891 1146 -2907 37 -28 37 -22 -14 102 -2 7
33 -8 79 -32 155 -82 387 -144 679 -181 194 -25 922 -25 1199 0 1276 115 2633
418 4129 922 757 255 1368 507 2061 851 1058 524 1962 1095 2725 1719 461 378
872 802 1072 1107 113 171 202 369 190 421 -2 12 -246 636 -541 1386 -355 902
-549 1382 -572 1418 -137 206 -474 328 -962 350 -105 4 -151 10 -148 17 88
205 111 303 103 455 -11 246 -137 478 -300 555 -121 57 -295 70 -552 41 l-129
-14 -64 30 c-186 89 -402 128 -547 99z m189 -124 c26 -8 58 -22 72 -31 l25
-16 -70 -34 c-151 -73 -275 -178 -353 -300 -59 -93 -83 -153 -106 -266 l-19
-94 -8 97 c-18 238 31 459 123 554 35 36 116 82 167 95 50 12 119 10 169 -5z
m1624 -1172 c289 -38 453 -125 531 -283 38 -77 54 -103 137 -221 154 -219 395
-815 504 -1244 63 -248 74 -330 75 -531 0 -166 -2 -185 -24 -238 -47 -118
-115 -162 -238 -155 -174 9 -301 140 -595 612 -149 240 -249 322 -393 320
-138 -1 -223 -79 -261 -241 -23 -94 -21 -335 5 -598 31 -323 35 -411 22 -510
-19 -139 -65 -222 -135 -244 -153 -47 -272 -7 -511 174 -77 58 -178 125 -223
147 -76 38 -92 43 -175 46 -75 3 -104 0 -157 -18 -125 -42 -172 -93 -178 -197
-8 -125 21 -215 181 -568 163 -358 200 -470 200 -606 0 -111 -48 -199 -133
-244 -59 -31 -156 -55 -220 -55 -133 0 -216 54 -317 208 -31 48 -71 105 -89
127 -17 22 -56 85 -86 140 -65 119 -96 145 -172 145 -56 0 -121 -25 -149 -58
-74 -83 -60 -220 63 -612 152 -483 178 -677 115 -862 -52 -153 -175 -255 -372
-309 -287 -79 -566 47 -830 376 -48 60 -231 321 -298 425 -26 41 -106 176
-177 300 -131 229 -168 279 -219 300 -40 17 -73 6 -118 -39 -68 -68 -73 -130
-30 -366 24 -128 28 -225 10 -277 -30 -91 -160 -144 -254 -104 -41 17 -89 72
-123 139 -15 29 -44 71 -65 94 -46 50 -86 127 -146 282 -63 160 -68 170 -116
192 -89 40 -211 14 -288 -61 -105 -101 -93 -207 70 -598 91 -217 117 -296 126
-379 9 -73 -7 -133 -45 -177 -74 -84 -273 -116 -380 -61 -52 27 -117 93 -157
159 -20 33 -59 89 -86 124 -26 36 -68 104 -92 152 -29 58 -52 91 -66 95 -55
18 -131 -25 -145 -81 -12 -47 11 -145 64 -275 28 -68 75 -185 106 -259 94
-231 110 -295 110 -445 1 -119 -1 -134 -24 -180 -64 -131 -223 -218 -420 -232
-99 -6 -187 12 -260 54 -71 42 -166 140 -236 243 -35 52 -80 118 -100 145 -89
125 -169 313 -304 719 -48 142 -93 260 -105 274 -57 67 -213 0 -259 -110 -25
-58 -19 -123 24 -294 62 -244 54 -334 -35 -412 -65 -58 -192 -99 -264 -86
-100 18 -160 72 -299 264 -135 188 -196 238 -303 247 -73 7 -181 -24 -240 -70
-63 -48 -89 -104 -89 -191 0 -95 17 -162 91 -357 114 -302 134 -401 105 -503
-29 -100 -109 -164 -251 -201 -227 -58 -425 47 -614 324 -32 47 -83 123 -114
167 -79 114 -164 280 -287 559 -105 238 -106 240 -138 243 -47 5 -88 -38 -96
-104 -6 -48 -4 -70 30 -334 35 -270 -16 -360 -200 -348 -165 11 -245 87 -514
488 -150 225 -324 645 -452 1094 -41 146 -42 149 -27 200 8 28 20 78 26 111
32 170 214 419 489 668 68 62 130 116 138 120 7 4 23 3 34 -3 20 -11 19 -13
-26 -63 -69 -76 -184 -258 -184 -291 0 -1 42 39 94 90 323 316 912 536 1652
618 l132 15 133 83 134 83 -70 3 c-38 2 -150 -2 -248 -8 -99 -6 -181 -9 -184
-6 -3 2 6 33 20 68 49 122 87 305 87 418 l0 45 168 92 c255 140 431 232 724
379 l266 133 -28 -62 c-202 -449 126 -1099 694 -1374 l94 -45 -106 -98 c-95
-88 -304 -309 -362 -382 -37 -48 -5 -31 92 48 159 131 322 251 486 358 547
358 1011 522 1419 503 116 -5 122 -5 128 14 19 58 -53 114 -180 140 -33 7 -61
13 -62 14 -1 1 13 38 33 82 60 140 85 258 91 428 8 241 -30 392 -144 563 -108
162 -228 266 -363 313 -80 27 -230 30 -333 5 -94 -22 -240 -78 -387 -148
l-125 -59 -124 12 c-109 11 -121 13 -100 24 75 40 839 364 999 424 63 24 63
25 -97 -86 -65 -45 -131 -94 -148 -108 l-30 -26 80 6 c164 13 182 18 317 99
357 213 710 355 1008 407 129 22 358 27 449 9 30 -5 56 -9 58 -7 8 9 -142 69
-223 89 -49 13 -91 24 -93 25 -1 1 8 26 22 56 l26 53 353 117 c194 64 421 137
503 162 83 26 155 48 162 50 7 2 -19 -35 -56 -83 -38 -48 -92 -121 -120 -162
-50 -72 -55 -76 -136 -111 -132 -57 -231 -124 -331 -223 -72 -72 -99 -107
-127 -166 -80 -169 -75 -330 18 -518 84 -169 273 -332 495 -427 l97 -41 -33
-39 c-18 -22 -31 -41 -29 -43 1 -2 30 11 64 28 180 90 575 237 861 320 199 58
479 125 704 171 198 40 200 40 292 97 51 31 93 61 94 66 0 11 -299 -1 -474
-19 -72 -8 -132 -13 -133 -11 -1 1 6 30 16 64 46 151 60 376 32 532 -43 243
-173 481 -329 605 -31 26 -102 68 -156 95 -57 28 -93 52 -85 55 41 15 596 150
802 195 l237 52 33 -26 c96 -78 147 -116 191 -141 l49 -29 -34 -25 c-187 -142
-409 -335 -374 -327 11 3 72 15 135 27 113 22 116 24 205 89 195 145 456 304
634 388 292 136 543 198 780 190 60 -1 107 -1 105 1 -2 2 -21 12 -42 22 l-37
18 85 -5 c47 -3 136 -12 198 -20z m-6183 -424 c-34 -101 -49 -216 -42 -334 9
-151 57 -281 146 -394 23 -29 38 -52 34 -52 -17 0 -181 151 -233 215 -71 86
-127 186 -141 254 -19 94 13 207 83 287 36 41 123 94 155 94 l22 0 -24 -70z
m2107 -862 c-30 -102 -42 -321 -22 -421 23 -122 84 -244 173 -352 l42 -49 -45
31 c-150 104 -306 276 -362 400 -34 76 -31 199 6 280 32 71 103 144 169 173
23 11 47 20 53 20 7 0 2 -31 -14 -82z m-3071 -784 c4 -2 -28 -39 -71 -81 -226
-227 -330 -531 -276 -808 8 -38 13 -71 11 -73 -5 -6 -64 137 -89 218 -74 234
-83 418 -25 537 49 101 172 193 281 212 47 8 152 5 169 -5z m-3511 -471 c0 -4
-18 -41 -39 -83 -142 -273 -145 -574 -10 -830 l40 -75 -46 50 c-130 142 -257
350 -286 468 -6 26 -9 82 -7 125 8 131 84 249 198 307 64 32 150 54 150 38z"/>
<path d="M14010 13250 c0 -676 -1467 -2001 -3362 -3038 -988 -540 -1987 -956
-3178 -1322 -2309 -709 -4455 -936 -5312 -562 -116 51 -233 145 -287 232 -15
25 -147 348 -292 718 -246 629 -283 712 -305 689 -2 -2 44 -125 102 -273 58
-148 132 -336 164 -419 31 -82 126 -323 209 -535 84 -212 188 -478 232 -593
l80 -207 -61 -68 c-34 -37 -100 -115 -147 -174 -85 -106 -85 -106 -161 -133
-265 -94 -475 -256 -568 -438 -47 -92 -64 -165 -64 -273 0 -311 212 -601 577
-787 132 -67 218 -98 354 -129 89 -20 131 -23 294 -23 167 0 201 3 279 24 270
70 458 204 641 455 l20 28 92 -16 c234 -41 358 -49 784 -50 l416 -1 46 -42
c179 -165 439 -305 685 -370 130 -34 400 -44 537 -19 186 32 386 117 545 232
155 111 331 318 420 494 19 36 34 66 35 67 0 1 137 36 303 78 695 174 1499
422 2152 665 l185 69 60 -17 c45 -13 100 -17 225 -17 142 0 176 3 245 23 240
69 457 230 599 445 l51 78 295 149 c1264 640 2380 1413 3106 2152 486 496 716
894 690 1196 -5 65 -29 133 -195 555 -349 886 -482 1221 -486 1226 -3 2 -5
-29 -5 -69z m-4692 -4195 c29 -9 52 -20 52 -24 0 -5 -29 -25 -65 -46 -136 -80
-265 -213 -328 -340 -37 -75 -67 -180 -75 -270 l-8 -80 -14 75 c-19 99 -19
348 -1 420 16 64 50 136 80 167 95 100 229 136 359 98z m-4488 -1200 c0 -3
-24 -34 -54 -69 -129 -152 -228 -337 -270 -506 -41 -167 -38 -353 10 -517 13
-47 23 -88 20 -90 -10 -10 -158 307 -190 405 -46 143 -59 230 -54 343 3 80 9
104 36 162 56 121 193 239 308 266 42 10 194 14 194 6z m-3295 -582 c-98 -230
-118 -481 -54 -683 28 -88 80 -190 135 -262 57 -76 33 -62 -85 48 -114 107
-219 241 -269 343 -36 73 -37 80 -37 181 0 93 3 112 27 162 46 100 146 187
248 219 38 11 43 10 35 -8z"/>
</g>
</svg>
